<?xml version="1.0" encoding="UTF-8"?>
<svg width="133px" height="133px" viewBox="0 0 133 133" version="1.1" xmlns="http://www.w3.org/2000/svg" xmlns:xlink="http://www.w3.org/1999/xlink">
    <!-- Generator: Sketch 59.1 (86144) - https://sketch.com -->
    <title>chess-piece</title>
    <desc>Created with Sketch.</desc>
    <g id="chess-piece" stroke="none" stroke-width="1" fill="none" fill-rule="evenodd">
        <g id="Group-2" transform="translate(22.000000, 3.000000)">
            <g id="Group" transform="translate(44.500000, 64.000000) scale(-1, 1) translate(-44.500000, -64.000000) " stroke="#000000" stroke-linecap="round" stroke-linejoin="round" stroke-width="4">
                <path d="M68.1416016,102.354492 L81.262207,115.405762 L81.262207,127.524414 L0,127.524414 L0,115.405762 L10.7900391,102.354492 L68.1416016,102.354492 C68.9934896,80.8753255 62.9049479,65.4649251 49.8759766,56.123291" id="Path"></path>
                <path d="M48.5097656,0.680664062 C37.6446264,2.37129618 21.3272083,6.65801892 8.82519531,28.7885742 C-5.453125,54.0634766 7.38380519,82.9024349 11.1279297,88.8017578 L21.2504883,82.440918 C14.5627558,71.5582844 12.0206009,60.2863117 13.6240234,48.625 C14.4296004,42.76623 19.1774747,30.6289121 27.0507813,23.5117188 C34.8485255,16.4628311 45.762821,14.4024748 48.5097656,15.0341797" id="Shape"></path>
                <path d="M48.5097656,0.680664062 L48.5097656,15.0341797 L59.4453125,17.2216797 L88.6240234,45.9921875 L81.262207,57.2636719 C74.3074544,54.8457031 65.389974,54.375651 54.5097656,55.8535156 C43.6295573,57.3313802 37.1611328,52.3072917 35.1044922,40.78125" id="Shape"></path>
                <path d="M48.5097656,0.680664062 L48.5097656,15.0341797 L59.4453125,17.2216797 L88.6240234,45.9921875 L81.262207,57.2636719 C74.3074544,54.8457031 65.389974,54.375651 54.5097656,55.8535156 C43.6295573,57.3313802 37.1611328,52.3072917 35.1044922,40.78125" id="Shape"></path>
                <line x1="0" y1="115.405762" x2="79.1152344" y2="115.405762" id="Path-2"></line>
            </g>
            <line x1="57.2001953" y1="18.4121094" x2="61.9492187" y2="9.1171875" id="Path-3" stroke="#000000" stroke-width="4" stroke-linecap="round" stroke-linejoin="round"></line>
            <line x1="74.859375" y1="68.8525391" x2="83.4765625" y2="73.4824219" id="Path-4" stroke="#000000" stroke-width="4" stroke-linecap="round" stroke-linejoin="round"></line>
            <line x1="69.4375" y1="31.8300781" x2="77.5341797" y2="25.7470703" id="Path-5" stroke="#000000" stroke-width="4"></line>
            <line x1="74.859375" y1="51.1650391" x2="85.4902344" y2="49.3076172" id="Path-6" stroke="#000000" stroke-width="4"></line>
            <circle id="Oval" fill="#000000" cx="39.5097656" cy="30.015625" r="3"></circle>
        </g>
    </g>
</svg>